<svg width="500" height="530" viewBox="0 0 500 530" fill="none" xmlns="http://www.w3.org/2000/svg">
<g clip-path="url(#clip0_2693_13300)">
<path d="M440.604 176.841C439.908 176.997 439.398 177.61 439.398 178.327V182.318C439.398 183.035 439.897 183.658 440.604 183.804L443.711 184.469C444.044 185.674 444.532 186.817 445.135 187.888L443.41 190.559C443.025 191.161 443.108 191.951 443.618 192.46L446.444 195.287C446.953 195.796 447.743 195.879 448.346 195.495L451.017 193.77C452.087 194.372 453.23 194.851 454.436 195.193L455.101 198.301C455.257 198.997 455.87 199.506 456.587 199.506H460.577C461.295 199.506 461.918 199.007 462.064 198.301L462.729 195.193C463.934 194.861 465.077 194.372 466.148 193.77L468.818 195.495C469.421 195.879 470.211 195.796 470.72 195.287L473.547 192.46C474.056 191.951 474.139 191.161 473.755 190.559L472.03 187.888C472.632 186.817 473.11 185.674 473.453 184.469L476.56 183.804C477.257 183.648 477.766 183.035 477.766 182.318V178.327C477.766 177.61 477.267 176.987 476.56 176.841L473.453 176.176C473.121 174.971 472.632 173.827 472.03 172.757L473.755 170.086C474.139 169.483 474.056 168.694 473.547 168.184L470.72 165.358C470.211 164.849 469.421 164.766 468.818 165.15L466.148 166.875C465.077 166.272 463.934 165.794 462.729 165.451L462.064 162.344C461.908 161.648 461.295 161.139 460.577 161.139H456.587C455.87 161.139 455.246 161.637 455.101 162.344L454.436 165.451C453.23 165.784 452.087 166.272 451.017 166.875L448.346 165.15C447.743 164.766 446.953 164.849 446.444 165.358L443.618 168.184C443.108 168.694 443.025 169.483 443.41 170.086L445.135 172.757C444.532 173.827 444.054 174.971 443.711 176.176L440.604 176.841ZM458.582 172.092C463.134 172.092 466.813 175.781 466.813 180.322C466.813 184.864 463.124 188.553 458.582 188.553C454.041 188.553 450.352 184.864 450.352 180.322C450.352 175.781 454.041 172.092 458.582 172.092Z" stroke="#1066FF" stroke-width="1.03921" stroke-miterlimit="10"/>
<path d="M470.751 209.867C470.283 210.137 470.065 210.708 470.231 211.228L471.177 214.107C471.343 214.626 471.852 214.959 472.393 214.896L474.793 214.647C475.313 215.426 475.926 216.143 476.622 216.777L476.009 219.116C475.874 219.646 476.123 220.196 476.612 220.446L479.324 221.817C479.813 222.067 480.405 221.932 480.748 221.516L482.265 219.635C483.2 219.822 484.136 219.885 485.071 219.843L486.287 221.932C486.557 222.399 487.129 222.618 487.648 222.451L490.527 221.506C491.046 221.339 491.379 220.83 491.317 220.29L491.067 217.889C491.847 217.37 492.564 216.757 493.208 216.06L495.546 216.673C496.076 216.809 496.627 216.559 496.876 216.071L498.248 213.358C498.498 212.87 498.362 212.278 497.947 211.935L496.066 210.417C496.253 209.482 496.315 208.547 496.274 207.612L498.362 206.396C498.83 206.125 499.048 205.554 498.882 205.034L497.936 202.156C497.77 201.636 497.261 201.304 496.721 201.366L494.32 201.615C493.8 200.836 493.187 200.119 492.491 199.475L493.104 197.136C493.239 196.606 492.99 196.056 492.501 195.806L489.789 194.434C489.301 194.185 488.708 194.32 488.365 194.736L486.848 196.617C485.913 196.43 484.978 196.367 484.042 196.409L482.826 194.32C482.556 193.852 481.985 193.634 481.465 193.8L478.586 194.746C478.067 194.912 477.734 195.422 477.797 195.962L478.046 198.363C477.267 198.882 476.55 199.495 475.916 200.192L473.577 199.578C473.047 199.443 472.497 199.693 472.247 200.181L470.875 202.894C470.626 203.382 470.761 203.974 471.177 204.317L473.058 205.835C472.871 206.77 472.808 207.705 472.85 208.64L470.761 209.856L470.751 209.867ZM478.971 205.304C480.53 202.218 484.292 200.981 487.378 202.54C490.465 204.099 491.701 207.861 490.142 210.947C488.584 214.034 484.822 215.27 481.735 213.712C478.649 212.153 477.412 208.391 478.971 205.304Z" stroke="#1066FF" stroke-width="1.03921" stroke-miterlimit="10"/>
<path d="M436.55 428.838L448.834 425.814C474.845 412.398 482.774 358.973 482.774 358.973L459.351 368.066C459.351 368.066 445.405 392.778 437.205 388.819C429.006 384.87 417.346 368.263 417.346 368.263L391.875 387.956C391.875 387.956 398.588 422.011 430.783 428.277C432.778 428.662 434.701 428.849 436.561 428.838H436.55Z" fill="white" stroke="#131359" stroke-width="1.03921" stroke-miterlimit="10"/>
<path d="M422.303 119.897C451.548 116.296 472.336 89.6685 468.735 60.4235C465.134 31.1784 438.507 10.39 409.261 13.9912C380.016 17.5924 359.228 44.2195 362.829 73.4646C366.43 102.71 393.058 123.498 422.303 119.897Z" fill="white" stroke="#1066FF" stroke-width="1.03921" stroke-miterlimit="10"/>
<path d="M476.384 348.684C483.856 328.544 493.583 324.917 496.981 317.341C500.38 309.755 477.746 297.763 469.224 299.124C460.703 300.486 447.193 324.242 442.143 335.559C442.143 335.559 439.046 341.441 443.805 349.921C448.554 358.4 468.923 368.834 476.395 348.684H476.384Z" fill="white" stroke="#131359" stroke-width="1.03921" stroke-miterlimit="10"/>
<path d="M453.904 370.507C461.158 374.155 472.329 374.425 480.965 371.193C489.601 367.971 484.654 364.168 484.997 362.557C485.34 360.946 491.097 356.8 489.144 353.807C487.19 350.814 487.075 349.203 488.333 343.561C489.601 337.918 480.736 337.46 472.443 337.117C464.151 336.774 463.413 343.353 469.222 345.296C462.207 344.371 453.395 348.206 456.523 355.272C451.493 354.961 450.277 360.967 453.914 362.557C451.815 362.692 448.968 368.013 453.914 370.497L453.904 370.507Z" fill="white" stroke="#131359" stroke-width="1.03921" stroke-miterlimit="10"/>
<path d="M454.621 326.446C454.621 325.271 464.171 306.514 469.222 304.134C474.272 301.754 487.543 310.213 487.543 310.213" stroke="#131359" stroke-width="1.03921" stroke-miterlimit="10"/>
<path d="M457.19 81.2549C452.971 93.4759 443.504 103.234 431.48 107.859" stroke="#1066FF" stroke-width="1.03921" stroke-miterlimit="10"/>
<path d="M474.988 309.111C474.988 307.833 473.949 306.794 472.671 306.794C471.393 306.794 470.354 307.833 470.354 309.111C470.354 310.39 471.393 311.429 472.671 311.429C473.949 311.429 474.988 310.39 474.988 309.111Z" fill="#131359"/>
<path d="M109.541 71.4971H104.553C101.775 71.4971 99.5234 73.749 99.5234 76.5268V119.446C99.5234 122.224 101.775 124.476 104.553 124.476H109.541C112.319 124.476 114.571 122.224 114.571 119.446V76.5268C114.571 73.749 112.319 71.4971 109.541 71.4971Z" fill="white" stroke="#1066FF" stroke-width="1.03921" stroke-miterlimit="10"/>
<path d="M346.325 71.4971H341.336C338.559 71.4971 336.307 73.749 336.307 76.5268V99.6907C336.307 102.469 338.559 104.72 341.336 104.72H346.325C349.102 104.72 351.354 102.469 351.354 99.6907V76.5268C351.354 73.749 349.102 71.4971 346.325 71.4971Z" fill="white" stroke="#1066FF" stroke-width="1.03921" stroke-miterlimit="10"/>
<path d="M346.325 109.407H341.336C338.559 109.407 336.307 111.659 336.307 114.437V137.601C336.307 140.379 338.559 142.631 341.336 142.631H346.325C349.102 142.631 351.354 140.379 351.354 137.601V114.437C351.354 111.659 349.102 109.407 346.325 109.407Z" fill="white" stroke="#1066FF" stroke-width="1.03921" stroke-miterlimit="10"/>
<path d="M376.795 47.0036C381.835 37.1728 390.492 29.493 401.008 25.7207" stroke="#1066FF" stroke-width="1.03921" stroke-miterlimit="10"/>
<path d="M399.534 74.2818L384.216 89.5997C382.605 91.2105 382.605 93.8293 384.216 95.4401L387.313 98.5369C388.924 100.148 391.542 100.148 393.153 98.5369L408.471 83.219C409.801 81.8888 410.019 79.8832 409.146 78.314L413.241 74.2195C421.555 80.2677 433.277 79.561 440.78 72.0683C449.073 63.7755 449.073 50.2762 440.78 41.9833C432.487 33.6905 418.988 33.6905 410.695 41.9833C403.202 49.476 402.506 61.2086 408.544 69.5223L404.449 73.6168C402.88 72.7438 400.874 72.9621 399.544 74.2922L399.534 74.2818ZM415.382 46.6805C421.087 40.9753 430.367 40.9753 436.062 46.6805C441.767 52.3858 441.767 61.6659 436.062 67.3607C430.357 73.066 421.077 73.066 415.382 67.3607C409.676 61.6555 409.676 52.3754 415.382 46.6805Z" fill="#1066FF"/>
<path d="M323.537 470.189C334.895 470.189 344.103 460.971 344.103 449.612V21.0958C344.103 9.73729 334.895 0.519531 323.537 0.519531H163.53L106.779 345.297V449.612C106.779 460.971 115.987 470.189 127.345 470.189H323.537Z" fill="white"/>
<path d="M337.266 310.265C396.75 317.633 413.138 317.622 422.034 307.916C431.116 298.013 423.114 288.4 438.796 281.666C452.316 275.857 453.823 258.388 442.121 250.355C430.42 242.322 432.706 209.057 407.329 193.728C392.416 184.718 375.581 196.617 375.581 196.617C358.289 190.413 344.114 211.041 341.848 220.779C339.583 230.506 334.481 238.83 324.151 246.291C313.831 253.753 313.208 274.267 324.151 281.666C335.094 289.075 335.042 297.223 337.255 310.265H337.266Z" fill="#131359"/>
<path d="M127.345 0.519531C115.987 0.519531 106.779 9.73729 106.779 21.0958V321.094L145.303 0.519531H127.345Z" fill="white"/>
<path d="M145.197 0.519531H127.24C115.881 0.519531 106.674 9.73729 106.674 21.0958V321.094M106.674 345.297V449.612C106.674 460.971 115.881 470.189 127.24 470.189H323.431C334.79 470.189 343.997 460.971 343.997 449.612V21.0958C343.997 9.73729 334.79 0.519531 323.431 0.519531H163.425" stroke="#1066FF" stroke-width="1.03921" stroke-miterlimit="10"/>
<path d="M252.528 327.495V298.138H150.155C144.492 298.138 139.898 302.731 139.898 308.395V317.228C139.898 322.892 144.492 327.485 150.155 327.485H252.528V327.495Z" fill="#1066FF"/>
<path d="M300.715 327.495C306.379 327.495 310.962 322.901 310.962 317.238V308.404C310.962 302.741 306.379 298.147 300.715 298.147H150.165C144.501 298.147 139.908 302.741 139.908 308.404V317.238C139.908 322.901 144.501 327.495 150.165 327.495H300.715Z" stroke="#1066FF" stroke-width="2.07841" stroke-miterlimit="10"/>
<path d="M306.284 34.9268H327.64V438.118H123.238V34.9268H282.715" stroke="#1066FF" stroke-width="2.07841" stroke-miterlimit="10"/>
<path d="M299.708 66.9551H151.175C143.294 66.9551 136.906 73.3432 136.906 81.2234V250.739C136.906 258.619 143.294 265.007 151.175 265.007H299.708C307.588 265.007 313.977 258.619 313.977 250.739V81.2234C313.977 73.3432 307.588 66.9551 299.708 66.9551Z" fill="#27277A"/>
<path d="M191.009 275.919C191.352 276.937 205.215 262.046 277.949 259.687C350.683 257.317 327.644 165.306 321.585 158.541C315.537 151.776 298.847 137.902 295.532 112.868C292.217 87.8332 265.426 55.0254 238.022 55.358C210.619 55.7009 188.629 70.5823 174.922 92.5719C161.204 114.562 166.452 128.591 157.733 142.631C150.23 154.696 131.244 176.477 131.805 198.124C132.481 223.834 144.66 249.201 163.522 250.895C182.383 252.589 190.666 274.911 191.009 275.929V275.919Z" fill="#131359"/>
<path d="M200.258 208.079C200.258 208.079 206.805 222.056 205.443 243.381C205.443 243.381 265.208 243.443 265.032 242.924C264.855 242.404 262.86 222.857 269.989 198.165L200.258 208.079Z" fill="white" stroke="#131359" stroke-width="1.03921" stroke-miterlimit="10"/>
<path d="M270.529 251.176C269.251 248.256 271.89 230.309 264.232 233.79C242.626 243.61 212.708 239.838 207.283 236.523C202.222 233.416 200.985 240.597 200.227 250.417C199.468 260.248 159.916 265.008 159.916 265.008L163.948 281.656L310.85 274.101C310.85 274.101 273.314 257.494 270.539 251.176H270.529Z" fill="white" stroke="#131359" stroke-width="1.03921" stroke-miterlimit="10"/>
<path d="M188.162 184.427V153.625C173.602 130.025 156.019 152.461 167.741 172.04C176.19 186.152 188.162 184.427 188.162 184.427Z" fill="white" stroke="#131359" stroke-width="1.03921" stroke-miterlimit="10"/>
<path d="M170.484 154.831L182.508 174.014C181.438 162.188 175.078 153.074 170.484 154.831Z" fill="white" stroke="#131359" stroke-width="1.03921" stroke-miterlimit="10"/>
<path d="M292.985 172.04C304.707 152.461 287.124 130.025 272.564 153.625V184.427C272.564 184.427 284.536 186.152 292.985 172.04Z" fill="white" stroke="#131359" stroke-width="1.03921" stroke-miterlimit="10"/>
<path d="M278.23 174.014L290.254 154.831C285.661 153.074 279.301 162.188 278.23 174.014Z" fill="white" stroke="#131359" stroke-width="1.03921" stroke-miterlimit="10"/>
<path d="M215.48 96.5938L208.579 123.863C208.579 123.863 188.969 125.743 181.29 129.1C181.29 129.1 179.315 161.014 184.283 185.248C190.331 214.793 221.871 226.224 229.758 227.606C237.635 228.989 258.326 225.829 271.129 202.977C283.932 180.125 278.809 129.1 278.809 129.1C269.747 131.657 221.476 126.014 221.476 126.014C223.648 112.296 215.48 96.5938 215.48 96.5938Z" fill="white" stroke="#131359" stroke-width="1.03921" stroke-miterlimit="10"/>
<path d="M157.732 23.1637C160.929 23.1637 163.52 20.5721 163.52 17.3753C163.52 14.1785 160.929 11.5869 157.732 11.5869C154.535 11.5869 151.943 14.1785 151.943 17.3753C151.943 20.5721 154.535 23.1637 157.732 23.1637Z" fill="#1066FF"/>
<path d="M174.93 17.3749C174.93 15.8369 173.682 14.5898 172.144 14.5898C170.606 14.5898 169.359 15.8369 169.359 17.3749C169.359 18.9129 170.606 20.16 172.144 20.16C173.682 20.16 174.93 18.9129 174.93 17.3749Z" fill="#1066FF"/>
<path d="M258.793 11.1289H192.076C189.126 11.1289 186.734 13.5204 186.734 16.4704V17.9045C186.734 20.8546 189.126 23.246 192.076 23.246H258.793C261.743 23.246 264.134 20.8546 264.134 17.9045V16.4704C264.134 13.5204 261.743 11.1289 258.793 11.1289Z" fill="#1066FF"/>
<path d="M152.025 124.839V83.5098H184.293" stroke="white" stroke-width="4.15682" stroke-miterlimit="10"/>
<path d="M298.853 207.134V248.463H266.586" stroke="white" stroke-width="4.15682" stroke-miterlimit="10"/>
<path d="M184.293 248.463H152.025V207.134" stroke="white" stroke-width="4.15682" stroke-miterlimit="10"/>
<path d="M266.588 83.5098H298.855V124.839" stroke="white" stroke-width="4.15682" stroke-miterlimit="10"/>
<path d="M237.594 181.393L229.768 154.831C231.306 161.679 228.106 174.96 225.445 178.733C225.445 178.733 228.656 183.482 237.594 181.393Z" fill="white" stroke="#131359" stroke-width="1.03921" stroke-miterlimit="10"/>
<path d="M247.092 135.399L265.829 136.656C260.373 130.223 251.29 131.626 247.092 135.399Z" fill="white" stroke="#131359" stroke-width="1.03921" stroke-miterlimit="10"/>
<path d="M196.754 135.399L215.491 136.656C210.035 130.223 200.952 131.626 196.754 135.399Z" fill="white" stroke="#131359" stroke-width="1.03921" stroke-miterlimit="10"/>
<path d="M211.729 152.452C211.729 149.594 210.326 147.276 208.58 147.276C206.835 147.276 205.432 149.594 205.432 152.452C205.432 155.309 206.835 157.627 208.58 157.627C210.326 157.627 211.729 155.309 211.729 152.452Z" fill="#131359"/>
<path d="M256.466 152.452C256.466 149.594 255.063 147.276 253.317 147.276C251.571 147.276 250.168 149.594 250.168 152.452C250.168 155.309 251.571 157.627 253.317 157.627C255.063 157.627 256.466 155.309 256.466 152.452Z" fill="#131359"/>
<path d="M245.553 193.729L220.082 195.589C225.798 199.818 239.463 202.427 245.553 193.729Z" fill="white" stroke="#131359" stroke-width="1.03921" stroke-miterlimit="10"/>
<path d="M377.314 295.592L379.85 290.063C379.85 290.063 392.393 293.17 399.73 284.503C405.976 277.125 413.24 263.906 418.373 239.61C418.373 239.61 401.653 241.553 387.176 230.953C387.176 230.953 390.46 224.24 390.159 215.874C390.159 215.874 379.258 230.059 377.616 230.953C377.616 230.953 372.544 235.151 363.431 233.353C365.467 227.264 360.916 222.993 354.348 227.887C347.666 232.875 345.671 251.602 357.757 252.153C357.757 252.153 351.937 272.157 345.66 284.701C345.66 284.701 362.235 298.886 377.314 295.602V295.592Z" fill="white"/>
<path d="M379.853 290.063C367.59 286.717 358.684 274.069 362.124 255" stroke="#131359" stroke-width="1.03921" stroke-miterlimit="10"/>
<path d="M225.436 403.035C225.519 403.014 225.592 402.962 225.675 402.941C243.082 395.428 253.869 387.644 252.403 350.222C252.403 350.222 234.352 350.513 225.675 339.976C225.592 339.882 225.519 339.778 225.436 339.685C225.353 339.778 225.27 339.882 225.197 339.976C216.52 350.523 198.469 350.222 198.469 350.222C197.003 387.634 207.79 395.417 225.197 402.941C225.27 402.962 225.353 403.014 225.436 403.035Z" fill="#1066FF"/>
<path d="M377.074 239.848C379.309 237.344 385.377 235.982 386.936 242.561" stroke="#131359" stroke-width="1.03921" stroke-miterlimit="10"/>
<path d="M402.496 245.907C404.19 244.005 409.116 243.808 409.687 249.7" stroke="#131359" stroke-width="1.03921" stroke-miterlimit="10"/>
<path d="M404.924 255.894C405.34 254.646 405.07 253.441 404.322 253.192C403.573 252.942 402.638 253.753 402.223 255C401.807 256.247 402.077 257.452 402.825 257.702C403.573 257.951 404.509 257.141 404.924 255.894Z" fill="#131359"/>
<path d="M381.44 249.378C381.856 248.131 381.586 246.925 380.837 246.676C380.089 246.427 379.154 247.237 378.738 248.484C378.322 249.731 378.593 250.937 379.341 251.186C380.089 251.436 381.024 250.625 381.44 249.378Z" fill="#131359"/>
<path d="M385.473 266.13C385.473 266.13 387.8 267.345 392.654 267.002C392.654 267.002 391.874 259.292 393.693 253.742" stroke="#131359" stroke-width="1.03921" stroke-miterlimit="10"/>
<path d="M381.055 272.625C381.283 274.34 384.422 276.938 388.797 274.88" stroke="#131359" stroke-width="1.03921" stroke-miterlimit="10"/>
<path d="M378.124 293.824C358.639 292.713 351.707 282.674 347.603 280.564C340.869 277.104 336.015 292.661 329.853 298.137C323.701 303.614 297.669 300.382 282.257 319.503C269.444 335.403 277.248 389.629 277.248 389.629C281.436 393.162 298.448 408.865 298.448 408.865C295.705 455.972 304.86 475.478 304.86 475.478L409.155 460.555C384.027 453.093 391.862 387.956 391.862 387.956C407.44 387.301 423.683 371.568 423.683 371.568C423.683 371.568 412.875 358.39 411.774 347.354C407.326 302.731 376.305 302.471 376.576 301.681C376.835 300.891 383.341 294.115 378.124 293.814V293.824Z" fill="white"/>
<path d="M315.441 302.398C322.061 301.078 327.465 300.257 329.855 298.127C336.007 292.65 340.871 277.104 347.605 280.554C351.71 282.664 358.641 292.702 378.126 293.814C383.343 294.116 376.838 300.891 376.578 301.681C376.318 302.471 407.328 302.731 411.776 347.354C412.877 358.39 423.685 371.568 423.685 371.568C423.685 371.568 407.442 387.301 391.865 387.956C391.865 387.956 394.369 441.662 409.157 460.555" stroke="#131359" stroke-width="1.03921" stroke-miterlimit="10"/>
<path d="M222.556 383.28L241.033 365.312C241.688 364.678 241.698 363.628 241.064 362.974L237.656 359.472C237.022 358.817 235.972 358.807 235.317 359.44L222.566 371.828C221.922 372.451 220.904 372.451 220.259 371.828L215.562 367.214C214.907 366.58 213.868 366.59 213.224 367.234L209.805 370.726C209.171 371.381 209.181 372.42 209.826 373.064L220.239 383.28C220.883 383.903 221.901 383.914 222.546 383.28H222.556Z" fill="white"/>
<path d="M449.445 336.837C450.651 338.894 452.584 346.023 455.483 346.99C458.382 347.956 462.487 339.736 455.483 331.641C448.479 323.545 429.627 321.124 426.26 325.624C418.321 336.244 346.231 382.967 333.262 385.347C320.293 387.727 319.544 379.101 319.544 379.101C302.345 396.425 277.238 389.618 277.238 389.618C284.731 417.521 300.745 429.035 318.349 430.823L333.054 430.241C351.874 427.05 370.362 415.193 380.567 402.328C400.592 377.054 408.719 365.353 412.345 365.353C424.317 365.353 426.001 360.032 426.001 360.032C426.001 360.032 430.594 361.487 434.824 362.692C439.053 363.898 440.383 357.735 440.383 357.735C444.488 361.601 447.034 355.439 447.034 355.439C447.034 355.439 448.364 357.496 451.025 357.153C453.685 356.821 452.355 346.855 451.025 344.194C449.695 341.534 439.178 334.166 439.178 334.166C439.178 334.166 448.24 334.769 449.445 336.826V336.837Z" fill="white" stroke="#131359" stroke-width="1.03921" stroke-miterlimit="10"/>
<path d="M375.59 196.617C375.59 196.617 387.873 171.687 413.427 190.361" stroke="#131359" stroke-width="1.03921" stroke-miterlimit="10"/>
<path d="M447.033 355.451C447.106 354.973 447.459 345.755 437.213 344.373" stroke="#131359" stroke-width="1.03921" stroke-miterlimit="10"/>
<path d="M432.713 350.939C432.713 350.939 439.873 354.078 440.382 357.746" stroke="#131359" stroke-width="1.03921" stroke-miterlimit="10"/>
<path d="M469.211 345.297L479.177 346.98" stroke="#131359" stroke-width="1.03921" stroke-miterlimit="10"/>
<path d="M456.512 355.273C456.512 355.273 465.407 355.98 477.753 356.365" stroke="#131359" stroke-width="1.03921" stroke-miterlimit="10"/>
<path d="M453.902 362.568L471.787 363.233" stroke="#131359" stroke-width="1.03921" stroke-miterlimit="10"/>
<path d="M338.373 301.724C338.529 301.266 345.159 290.074 345.159 290.074" stroke="#131359" stroke-width="1.03921" stroke-miterlimit="10"/>
<path d="M350.583 294.179L347.871 303.978" stroke="#131359" stroke-width="1.03921" stroke-miterlimit="10"/>
<path d="M357.88 297.192L356.051 305.485" stroke="#131359" stroke-width="1.03921" stroke-miterlimit="10"/>
<path d="M366.264 299.916L363.854 308.354" stroke="#131359" stroke-width="1.03921" stroke-miterlimit="10"/>
<path d="M371.244 301.34V308.812" stroke="#131359" stroke-width="1.03921" stroke-miterlimit="10"/>
<path d="M284.262 388.009L282.734 376.349" stroke="#131359" stroke-width="1.03921" stroke-miterlimit="10"/>
<path d="M292.836 376.796L294.416 387.562" stroke="#131359" stroke-width="1.03921" stroke-miterlimit="10"/>
<path d="M301.586 376.349L303.394 385.359" stroke="#131359" stroke-width="1.03921" stroke-miterlimit="10"/>
<path d="M310.324 373.449L311.53 380.859" stroke="#131359" stroke-width="1.03921" stroke-miterlimit="10"/>
<path d="M314.4 346.981L319.555 379.114" stroke="#131359" stroke-width="1.03921" stroke-miterlimit="10"/>
<path d="M384.358 356.365L381.043 345.298" stroke="#131359" stroke-width="1.03921" stroke-miterlimit="10"/>
<path d="M196.261 425.685C199.116 425.449 201.238 422.943 201.002 420.089C200.766 417.235 198.26 415.113 195.406 415.349C192.552 415.585 190.43 418.09 190.666 420.944C190.902 423.799 193.407 425.921 196.261 425.685Z" fill="#1066FF"/>
<path d="M226.605 425.58C229.392 424.923 231.119 422.13 230.461 419.342C229.803 416.555 227.01 414.829 224.223 415.487C221.435 416.144 219.709 418.937 220.367 421.725C221.025 424.512 223.818 426.238 226.605 425.58Z" fill="#1066FF"/>
<path d="M255.442 425.667C258.299 425.463 260.45 422.983 260.246 420.126C260.043 417.269 257.562 415.118 254.706 415.321C251.849 415.525 249.698 418.005 249.901 420.862C250.105 423.719 252.585 425.87 255.442 425.667Z" fill="white" stroke="#1066FF" stroke-width="1.03921" stroke-miterlimit="10"/>
<path d="M230.372 222.982L198.542 202.801L189.168 168.382L189.947 114.645L230.372 97.8203" stroke="#1066FF" stroke-width="1.03921" stroke-miterlimit="10"/>
<path d="M230.373 97.8203L270.788 114.645L271.578 168.382L262.204 202.801L230.373 222.982" stroke="#1066FF" stroke-width="1.03921" stroke-miterlimit="10"/>
<path d="M230.371 97.8203V222.567" stroke="#1066FF" stroke-width="1.03921" stroke-miterlimit="10"/>
<path d="M189.166 168.382L230.371 176.654" stroke="#1066FF" stroke-width="1.03921" stroke-miterlimit="10"/>
<path d="M271.576 168.382L230.371 176.654" stroke="#1066FF" stroke-width="1.03921" stroke-miterlimit="10"/>
<path d="M189.945 114.645L230.37 135.626L270.785 114.645" stroke="#1066FF" stroke-width="1.03921" stroke-miterlimit="10"/>
<path d="M356.055 232.917C358.767 232.876 361.407 236.69 358.32 245.357" stroke="#131359" stroke-width="1.03921" stroke-miterlimit="10"/>
<path d="M304.862 475.478C304.862 475.478 295.707 455.983 298.45 408.865C298.45 408.865 281.438 393.162 277.25 389.629C277.25 389.629 269.446 335.393 282.259 319.504C288.068 312.302 295.374 308.27 302.565 305.755" stroke="#131359" stroke-width="1.03921" stroke-miterlimit="10"/>
<path d="M58.9541 240.732C91.2266 240.732 117.389 214.57 117.389 182.298C117.389 150.025 91.2266 123.863 58.9541 123.863C26.6816 123.863 0.519531 150.025 0.519531 182.298C0.519531 214.57 26.6816 240.732 58.9541 240.732Z" fill="white" stroke="#1066FF" stroke-width="1.03921" stroke-miterlimit="10"/>
<path d="M24.755 175.657C23.4248 175.948 22.4688 177.122 22.4688 178.494V186.091C22.4688 187.452 23.4248 188.637 24.755 188.928L30.6577 190.195C31.302 192.492 32.2061 194.674 33.3596 196.701L30.0757 201.783C29.3379 202.926 29.4938 204.433 30.4602 205.399L35.8329 210.772C36.7994 211.738 38.3062 211.894 39.4494 211.156L44.5311 207.872C46.5679 209.015 48.7399 209.93 51.0365 210.574L52.3044 216.477C52.5953 217.807 53.7696 218.763 55.1414 218.763H62.738C64.0993 218.763 65.284 217.807 65.575 216.477L66.8428 210.574C69.1395 209.93 71.3218 209.026 73.3483 207.872L78.43 211.156C79.5731 211.894 81.08 211.738 82.0464 210.772L87.4191 205.399C88.3856 204.433 88.5415 202.926 87.8036 201.783L84.5197 196.701C85.6629 194.664 86.5774 192.492 87.2217 190.195L93.1244 188.928C94.4546 188.637 95.4106 187.462 95.4106 186.091V178.494C95.4106 177.133 94.4546 175.948 93.1244 175.657L87.2217 174.389C86.5774 172.092 85.6733 169.91 84.5197 167.884L87.8036 162.802C88.5415 161.659 88.3856 160.152 87.4191 159.185L82.0464 153.813C81.08 152.846 79.5731 152.69 78.43 153.428L73.3483 156.712C71.3114 155.569 69.1395 154.655 66.8428 154.01L65.575 148.108C65.284 146.777 64.1097 145.821 62.738 145.821H55.1414C53.78 145.821 52.5953 146.777 52.3044 148.108L51.0365 154.01C48.7399 154.655 46.5575 155.559 44.5311 156.712L39.4494 153.428C38.3062 152.69 36.7994 152.846 35.8329 153.813L30.4602 159.185C29.4938 160.152 29.3379 161.659 30.0757 162.802L33.3596 167.884C32.2165 169.92 31.302 172.092 30.6577 174.389L24.755 175.657ZM58.9449 166.626C67.5911 166.626 74.6057 173.641 74.6057 182.287C74.6057 190.933 67.5911 197.948 58.9449 197.948C50.2987 197.948 43.284 190.933 43.284 182.287C43.284 173.641 50.2987 166.626 58.9449 166.626Z" fill="#1066FF"/>
<path d="M15.6172 161.711C21.8732 148.554 33.9488 138.703 48.5081 135.471" stroke="#1066FF" stroke-width="1.03921" stroke-miterlimit="10"/>
<path d="M105.019 195.661C101.101 209.171 91.4056 220.228 78.7793 225.975" stroke="#1066FF" stroke-width="1.03921" stroke-miterlimit="10"/>
<path d="M133.904 506.519C164.345 476.077 164.345 426.722 133.904 396.28C103.462 365.838 54.1062 365.838 23.6645 396.28C-6.77721 426.722 -6.7772 476.077 23.6645 506.519C54.1062 536.961 103.462 536.961 133.904 506.519Z" fill="white" stroke="#1066FF" stroke-width="1.03921" stroke-miterlimit="10"/>
<path d="M79.9875 414.788C88.2699 414.788 95.1599 420.763 96.6251 428.62C96.9473 430.293 98.3814 431.509 100.086 431.509H104.087C106.227 431.509 107.901 429.607 107.589 427.508C105.645 414.726 95.004 404.77 81.9204 403.866C65.5321 402.744 52.0744 416.056 52.0744 432.496V441.672C47.6785 444.239 44.7168 448.999 44.7168 454.454V484.238C44.7168 492.406 51.3365 499.036 59.5151 499.036H98.08C106.259 499.036 112.878 492.406 112.878 484.238V454.454C112.878 446.276 106.259 439.656 98.08 439.656H63.0692V431.717C63.0692 422.395 70.6554 414.798 79.9875 414.798V414.788ZM78.782 449.726C85.568 449.726 91.055 455.213 91.055 461.999C91.055 467.632 87.2619 472.37 82.0763 473.804V485.631C82.0763 487.46 80.6006 488.925 78.782 488.925C76.9634 488.925 75.4877 487.449 75.4877 485.631V473.804C70.3124 472.37 66.5089 467.632 66.5089 461.999C66.5089 455.213 72.0063 449.726 78.782 449.726Z" fill="#1066FF"/>
<path d="M24.7227 417.168C36.0708 399.294 56.0443 387.426 78.7822 387.426" stroke="#1066FF" stroke-width="1.03921" stroke-miterlimit="10"/>
<path d="M133.56 484.487C127.398 494.672 118.481 502.996 107.84 508.42" stroke="#1066FF" stroke-width="1.03921" stroke-miterlimit="10"/>
<path d="M299.708 66.9561H151.175C143.294 66.9561 136.906 73.3442 136.906 81.2244V250.74C136.906 258.62 143.294 265.008 151.175 265.008H299.708C307.588 265.008 313.977 258.62 313.977 250.74V81.2244C313.977 73.3442 307.588 66.9561 299.708 66.9561Z" stroke="#1066FF" stroke-width="2.07841" stroke-miterlimit="10"/>
<path d="M192.285 168.643C192.285 167.001 190.955 165.66 189.303 165.66C187.651 165.66 186.32 166.99 186.32 168.643C186.32 170.295 187.651 171.625 189.303 171.625C190.955 171.625 192.285 170.295 192.285 168.643Z" fill="#1066FF"/>
<path d="M271.43 171.625C273.077 171.625 274.412 170.29 274.412 168.643C274.412 166.995 273.077 165.66 271.43 165.66C269.783 165.66 268.447 166.995 268.447 168.643C268.447 170.29 269.783 171.625 271.43 171.625Z" fill="#1066FF"/>
<path d="M273.772 114.645C273.772 113.003 272.441 111.662 270.789 111.662C269.137 111.662 267.807 112.992 267.807 114.645C267.807 116.297 269.137 117.627 270.789 117.627C272.441 117.627 273.772 116.297 273.772 114.645Z" fill="#1066FF"/>
<path d="M189.949 117.627C191.597 117.627 192.932 116.292 192.932 114.645C192.932 112.997 191.597 111.662 189.949 111.662C188.302 111.662 186.967 112.997 186.967 114.645C186.967 116.292 188.302 117.627 189.949 117.627Z" fill="#1066FF"/>
<path d="M265.217 202.489C265.217 200.847 263.887 199.507 262.234 199.507C260.582 199.507 259.252 200.837 259.252 202.489C259.252 204.142 260.582 205.472 262.234 205.472C263.887 205.472 265.217 204.142 265.217 202.489Z" fill="#1066FF"/>
<path d="M230.371 225.965C232.018 225.965 233.354 224.63 233.354 222.983C233.354 221.335 232.018 220 230.371 220C228.724 220 227.389 221.335 227.389 222.983C227.389 224.63 228.724 225.965 230.371 225.965Z" fill="#1066FF"/>
<path d="M230.371 179.637C232.018 179.637 233.354 178.302 233.354 176.654C233.354 175.007 232.018 173.672 230.371 173.672C228.724 173.672 227.389 175.007 227.389 176.654C227.389 178.302 228.724 179.637 230.371 179.637Z" fill="#1066FF"/>
<path d="M233.354 135.627C233.354 133.985 232.024 132.645 230.371 132.645C228.719 132.645 227.389 133.975 227.389 135.627C227.389 137.279 228.719 138.61 230.371 138.61C232.024 138.61 233.354 137.279 233.354 135.627Z" fill="#1066FF"/>
<path d="M230.371 100.803C232.018 100.803 233.354 99.4676 233.354 97.8204C233.354 96.1732 232.018 94.8379 230.371 94.8379C228.724 94.8379 227.389 96.1732 227.389 97.8204C227.389 99.4676 228.724 100.803 230.371 100.803Z" fill="#1066FF"/>
<path d="M201.483 202.489C201.483 200.847 200.152 199.507 198.5 199.507C196.848 199.507 195.518 200.837 195.518 202.489C195.518 204.142 196.848 205.472 198.5 205.472C200.152 205.472 201.483 204.142 201.483 202.489Z" fill="#1066FF"/>
</g>
<defs>
<clipPath id="clip0_2693_13300">
<rect width="499.453" height="529.87" fill="white"/>
</clipPath>
</defs>
</svg>
